# xmcd
#
# Track frame offsets: 
#        150
#        14425
#        28895
#        45063
#        60206
#        76454
#        89913
#        108128
#        131401
#        147712
#        162700
#        177961
#        194072
#        211225
#        222544
#        238786
#        254489
#        271283
#        285840
#        300410
#
# Disc length: 4199 seconds
#
# Revision: 2
# Processed by: cddbd v1.5.2PL0 Copyright (c) Steve Scherf et al.
# Submitted via: ExactAudioCopyFreeDBPlugin 1.0
#
DISCID=26106514
DTITLE=Bellamy Brothers - Bellamy Brothers 40 Years - CD 1
DYEAR=2015
DGENRE=Country
TTITLE0=Let Your Love Flow
TTITLE1=If I Said You Have A Beautiful Body ( Would You Hold It Agains
TTITLE1=t Me)
TTITLE2=I Need More Of You
TTITLE3=Redneck Girl
TTITLE4=Sugar Daddy
TTITLE5=Do You Love As Good As You Look
TTITLE6=Ole Hippie
TTITLE7=You Ain't Just Whistlin' Dixie (live version)
TTITLE8=Crossfire
TTITLE9=Lovers Live Longer
TTITLE10=Dancin' Cowboys
TTITLE11=Crazy From The Heart
TTITLE12=When I'm Away From You
TTITLE13=Country Rap
TTITLE14=Feelin' The Feelin'
TTITLE15=I'd Lie To You For Your Love
TTITLE16=For All The Wrong Reasons
TTITLE17=Get Into Reggae Cowboy
TTITLE18=Kids of The Baby Boom
TTITLE19=Jalapeños
EXTD=
EXTT0=
EXTT1=
EXTT2=
EXTT3=
EXTT4=
EXTT5=
EXTT6=
EXTT7=
EXTT8=
EXTT9=
EXTT10=
EXTT11=
EXTT12=
EXTT13=
EXTT14=
EXTT15=
EXTT16=
EXTT17=
EXTT18=
EXTT19=
PLAYORDER=
